<svg width="10" height="11" viewBox="0 0 10 11" fill="none" xmlns="http://www.w3.org/2000/svg">
<path d="M6.66666 10.5833C6.41666 10.5833 6.24999 10.4167 6.24999 10.1667V8.54167C6.29166 8.20833 6.16666 7.95833 5.95833 7.75C5.83333 7.625 5.79166 7.45833 5.87499 7.33333C5.91666 7.16667 6.08333 7.08333 6.20833 7.04167C7.41666 6.91667 8.54166 6.5 8.54166 4.54166C8.54166 4.08333 8.37499 3.625 8.04166 3.25C7.91666 3.125 7.91666 2.95833 7.95833 2.83333C8.08333 2.5 8.08333 2.16666 7.99999 1.83333C7.79166 1.875 7.45833 2 6.91666 2.375C6.83333 2.45833 6.70833 2.45833 6.58333 2.41666C5.70833 2.16666 4.74999 2.16666 3.87499 2.41666C3.74999 2.45833 3.62499 2.45833 3.49999 2.375C2.99999 2 2.62499 1.875 2.41666 1.83333C2.33333 2.16666 2.33333 2.5 2.45833 2.83333C2.49999 3 2.49999 3.16666 2.37499 3.25C2.04166 3.625 1.87499 4.08333 1.87499 4.54166C1.87499 6.5 2.99999 6.91667 4.20833 7.04167C4.37499 7.04167 4.49999 7.16667 4.54166 7.33333C4.58333 7.5 4.54166 7.66667 4.45833 7.75C4.24999 7.95833 4.16666 8.20833 4.16666 8.5V8.875V8.91667V10.125C4.16666 10.375 3.99999 10.5417 3.74999 10.5417C3.49999 10.5417 3.33333 10.375 3.33333 10.125V9.41667C2.08333 9.625 1.54166 8.91667 1.16666 8.45833C0.999994 8.25 0.874994 8.08333 0.708327 8.04167C0.499994 8 0.333327 7.75 0.41666 7.54167C0.458327 7.33333 0.708327 7.16667 0.91666 7.25C1.33333 7.375 1.58333 7.66667 1.83333 7.95833C2.16666 8.41667 2.45833 8.75 3.33333 8.58333V8.54167C3.33333 8.29167 3.37499 8 3.45833 7.79167C2.29166 7.54167 1.04166 6.79167 1.04166 4.58333C1.04166 3.95833 1.24999 3.375 1.62499 2.91666C1.45833 2.33333 1.49999 1.79166 1.74999 1.24999C1.79166 1.12499 1.87499 1.04166 1.99999 0.999995C2.16666 0.958328 2.70833 0.874995 3.83333 1.58333C4.74999 1.37499 5.70833 1.37499 6.58333 1.58333C7.66666 0.874995 8.24999 0.958328 8.41666 0.999995C8.54166 1.04166 8.62499 1.12499 8.66666 1.24999C8.87499 1.79166 8.91666 2.33333 8.79166 2.875C9.16666 3.33333 9.37499 3.91666 9.37499 4.54166C9.37499 6.91667 7.95833 7.54167 6.95833 7.79167C7.04166 8.04167 7.08333 8.33333 7.08333 8.58333V10.1667C7.08333 10.4167 6.91666 10.5833 6.66666 10.5833Z" fill="#191C38"/>
</svg>
