<svg width="10" height="8" viewBox="0 0 10 8" fill="none" xmlns="http://www.w3.org/2000/svg">
<path d="M3.43423 8C2.3487 8 1.22142 7.7193 0.219395 7.15789C0.0523906 7.07769 -0.0311115 6.87719 0.0106396 6.71679C0.0523906 6.55639 0.219395 6.43609 0.386399 6.43609C1.09617 6.47619 1.80593 6.31579 2.4322 6.03509C0.887411 5.11278 0.469901 3.82957 0.42815 2.82707C0.386399 1.66416 0.803909 0.701754 0.84566 0.661654C0.887412 0.541353 1.01266 0.421053 1.17967 0.421053C1.34667 0.421053 1.47193 0.461153 1.55543 0.581454C2.2652 1.54386 3.35072 2.14536 4.5615 2.22556C4.5615 1.58396 4.85376 0.982456 5.35477 0.541353C6.23155 -0.180451 7.52583 -0.180451 8.4026 0.541353C8.73661 0.421053 9.07062 0.260652 9.36287 0.0601504C9.48813 -0.0200501 9.69688 -0.0200501 9.82213 0.0601504C9.94739 0.140351 10.0309 0.340852 9.98914 0.501253C9.86389 1.06266 9.57163 1.58396 9.15412 2.02506C9.15412 2.10526 9.15412 2.14536 9.15412 2.22556C9.15412 4.43108 8.15209 6.27569 6.3568 7.2381C5.48003 7.7594 4.478 8 3.43423 8ZM2.05644 7.03759C3.43423 7.3584 4.81201 7.19799 5.98104 6.55639C7.48408 5.71429 8.36085 4.11028 8.36085 2.22556C8.36085 2.14536 8.36085 2.06516 8.3191 1.98496C8.27735 1.86466 8.3191 1.70426 8.44435 1.62406C8.52785 1.54386 8.61135 1.42356 8.69486 1.34336C8.61135 1.38346 8.4861 1.42356 8.4026 1.42356C8.2356 1.46366 8.06859 1.42356 7.98509 1.30326C7.44233 0.741855 6.5238 0.661654 5.93929 1.18296C5.56353 1.42356 5.39652 1.82456 5.39652 2.22556V2.62657C5.39652 2.82707 5.22952 3.02757 4.97901 3.02757C3.60123 3.06767 2.30695 2.54637 1.38842 1.62406C1.13792 2.66667 1.05442 4.63158 3.47598 5.63409C3.60123 5.71429 3.72648 5.83459 3.72648 5.99499C3.72648 6.15539 3.68473 6.27569 3.55948 6.35589C3.05847 6.67669 2.55745 6.91729 2.05644 7.03759Z" fill="#191C38"/>
</svg>
